<svg xmlns="http://www.w3.org/2000/svg" viewBox="0 0 180 180" role="img" aria-labelledby="title desc">
  <title id="title">Ezivia icono táctil</title>
  <desc id="desc">Una pantalla redondeada con un corazón y ondas cálidas, representando cuidado accesible.</desc>
  <defs>
    <linearGradient id="bg" x1="0%" y1="0%" x2="100%" y2="100%">
      <stop offset="0%" stop-color="#ffd27f" />
      <stop offset="100%" stop-color="#ff8c42" />
    </linearGradient>
    <radialGradient id="glow" cx="50%" cy="35%" r="60%">
      <stop offset="0%" stop-color="#ffffff" stop-opacity="0.9" />
      <stop offset="100%" stop-color="#ffffff" stop-opacity="0" />
    </radialGradient>
  </defs>
  <rect x="10" y="10" width="160" height="160" rx="36" fill="url(#bg)" />
  <rect x="25" y="30" width="130" height="120" rx="28" fill="#fff" opacity="0.92" />
  <circle cx="90" cy="68" r="44" fill="url(#glow)" />
  <path
    d="M90 86c-10.6-14.4-29-11.8-29-28.4 0-8.4 6.8-15.2 15.2-15.2 5.8 0 10.8 3.2 13.8 8 3-4.8 8-8 13.8-8 8.4 0 15.2 6.8 15.2 15.2 0 16.6-18.4 14-29 28.4z"
    fill="#ff8c42"
  />
  <path
    d="M70 114h40c7.7 0 14 6.3 14 14v12c0 4.4-3.6 8-8 8H64c-4.4 0-8-3.6-8-8v-12c0-7.7 6.3-14 14-14z"
    fill="#2f2a1f"
    opacity="0.85"
  />
  <rect x="82" y="54" width="16" height="52" rx="8" fill="#2f2a1f" opacity="0.75" />
</svg>
